<mxfile host="app.diagrams.net" modified="2023-06-20T07:20:39.949Z" agent="Mozilla/5.0 (Windows NT 10.0; Win64; x64) AppleWebKit/537.36 (KHTML, like Gecko) Chrome/114.0.0.0 Safari/537.36" etag="sH7ySqLGP9knu5__5rq3" version="21.5.0" type="github">
  <diagram id="C5RBs43oDa-KdzZeNtuy" name="Page-1">
    <mxGraphModel dx="1272" dy="693" grid="1" gridSize="10" guides="1" tooltips="1" connect="1" arrows="1" fold="1" page="1" pageScale="1" pageWidth="827" pageHeight="1169" background="#ffffff" math="0" shadow="0">
      <root>
        <mxCell id="WIyWlLk6GJQsqaUBKTNV-0" />
        <mxCell id="WIyWlLk6GJQsqaUBKTNV-1" parent="WIyWlLk6GJQsqaUBKTNV-0" />
        <mxCell id="i1JUAL5Z5OwXQQaXqIF1-145" value="" style="edgeStyle=orthogonalEdgeStyle;rounded=0;orthogonalLoop=1;jettySize=auto;html=1;" parent="WIyWlLk6GJQsqaUBKTNV-1" source="i1JUAL5Z5OwXQQaXqIF1-143" target="i1JUAL5Z5OwXQQaXqIF1-144" edge="1">
          <mxGeometry relative="1" as="geometry" />
        </mxCell>
        <mxCell id="i1JUAL5Z5OwXQQaXqIF1-143" value="start" style="ellipse;whiteSpace=wrap;html=1;" parent="WIyWlLk6GJQsqaUBKTNV-1" vertex="1">
          <mxGeometry x="122.5" y="90" width="75" height="30" as="geometry" />
        </mxCell>
        <mxCell id="i1JUAL5Z5OwXQQaXqIF1-147" value="" style="edgeStyle=orthogonalEdgeStyle;rounded=0;orthogonalLoop=1;jettySize=auto;html=1;" parent="WIyWlLk6GJQsqaUBKTNV-1" source="i1JUAL5Z5OwXQQaXqIF1-144" target="i1JUAL5Z5OwXQQaXqIF1-146" edge="1">
          <mxGeometry relative="1" as="geometry" />
        </mxCell>
        <mxCell id="i1JUAL5Z5OwXQQaXqIF1-144" value="my assets list: &lt;u&gt;/lending/api/v1/assets/nfts&lt;/u&gt;" style="whiteSpace=wrap;html=1;align=center;" parent="WIyWlLk6GJQsqaUBKTNV-1" vertex="1">
          <mxGeometry x="30" y="150" width="260" height="30" as="geometry" />
        </mxCell>
        <mxCell id="i1JUAL5Z5OwXQQaXqIF1-149" value="" style="edgeStyle=orthogonalEdgeStyle;rounded=0;orthogonalLoop=1;jettySize=auto;html=1;entryX=0;entryY=0.5;entryDx=0;entryDy=0;" parent="WIyWlLk6GJQsqaUBKTNV-1" target="i1JUAL5Z5OwXQQaXqIF1-152" edge="1">
          <mxGeometry relative="1" as="geometry">
            <mxPoint x="199.97090909090946" y="234.51999999999953" as="sourcePoint" />
            <mxPoint x="282.5" y="235" as="targetPoint" />
            <Array as="points">
              <mxPoint x="247.5" y="234" />
            </Array>
          </mxGeometry>
        </mxCell>
        <mxCell id="i1JUAL5Z5OwXQQaXqIF1-155" value="" style="edgeStyle=orthogonalEdgeStyle;rounded=0;orthogonalLoop=1;jettySize=auto;html=1;" parent="WIyWlLk6GJQsqaUBKTNV-1" source="i1JUAL5Z5OwXQQaXqIF1-146" edge="1">
          <mxGeometry relative="1" as="geometry">
            <mxPoint x="160" y="308" as="targetPoint" />
          </mxGeometry>
        </mxCell>
        <mxCell id="i1JUAL5Z5OwXQQaXqIF1-146" value="mortgaged?" style="rhombus;whiteSpace=wrap;html=1;" parent="WIyWlLk6GJQsqaUBKTNV-1" vertex="1">
          <mxGeometry x="120" y="206" width="80" height="55" as="geometry" />
        </mxCell>
        <mxCell id="i1JUAL5Z5OwXQQaXqIF1-150" value="No" style="text;html=1;align=center;verticalAlign=middle;resizable=0;points=[];autosize=1;strokeColor=none;fillColor=none;" parent="WIyWlLk6GJQsqaUBKTNV-1" vertex="1">
          <mxGeometry x="207.5" y="200" width="40" height="30" as="geometry" />
        </mxCell>
        <mxCell id="i1JUAL5Z5OwXQQaXqIF1-152" value="Exit" style="ellipse;whiteSpace=wrap;html=1;" parent="WIyWlLk6GJQsqaUBKTNV-1" vertex="1">
          <mxGeometry x="247.5" y="219" width="75" height="30" as="geometry" />
        </mxCell>
        <mxCell id="i1JUAL5Z5OwXQQaXqIF1-157" value="Yes" style="text;html=1;align=center;verticalAlign=middle;resizable=0;points=[];autosize=1;strokeColor=none;fillColor=none;" parent="WIyWlLk6GJQsqaUBKTNV-1" vertex="1">
          <mxGeometry x="157.5" y="278" width="40" height="30" as="geometry" />
        </mxCell>
        <mxCell id="i1JUAL5Z5OwXQQaXqIF1-160" value="" style="edgeStyle=orthogonalEdgeStyle;rounded=0;orthogonalLoop=1;jettySize=auto;html=1;" parent="WIyWlLk6GJQsqaUBKTNV-1" source="i1JUAL5Z5OwXQQaXqIF1-158" target="i1JUAL5Z5OwXQQaXqIF1-159" edge="1">
          <mxGeometry relative="1" as="geometry" />
        </mxCell>
        <mxCell id="i1JUAL5Z5OwXQQaXqIF1-163" value="" style="edgeStyle=orthogonalEdgeStyle;rounded=0;orthogonalLoop=1;jettySize=auto;html=1;" parent="WIyWlLk6GJQsqaUBKTNV-1" source="i1JUAL5Z5OwXQQaXqIF1-158" target="i1JUAL5Z5OwXQQaXqIF1-162" edge="1">
          <mxGeometry relative="1" as="geometry" />
        </mxCell>
        <mxCell id="i1JUAL5Z5OwXQQaXqIF1-158" value="listing?" style="rhombus;whiteSpace=wrap;html=1;" parent="WIyWlLk6GJQsqaUBKTNV-1" vertex="1">
          <mxGeometry x="120" y="308" width="80" height="52" as="geometry" />
        </mxCell>
        <mxCell id="i1JUAL5Z5OwXQQaXqIF1-176" value="" style="edgeStyle=orthogonalEdgeStyle;rounded=0;orthogonalLoop=1;jettySize=auto;html=1;" parent="WIyWlLk6GJQsqaUBKTNV-1" source="i1JUAL5Z5OwXQQaXqIF1-159" target="i1JUAL5Z5OwXQQaXqIF1-175" edge="1">
          <mxGeometry relative="1" as="geometry" />
        </mxCell>
        <mxCell id="i1JUAL5Z5OwXQQaXqIF1-159" value="listing:&amp;nbsp;&lt;u&gt;/lending/api/v1/listings&lt;/u&gt;" style="whiteSpace=wrap;html=1;" parent="WIyWlLk6GJQsqaUBKTNV-1" vertex="1">
          <mxGeometry x="255" y="316" width="187.5" height="36" as="geometry" />
        </mxCell>
        <mxCell id="i1JUAL5Z5OwXQQaXqIF1-161" value="No" style="text;html=1;align=center;verticalAlign=middle;resizable=0;points=[];autosize=1;strokeColor=none;fillColor=none;" parent="WIyWlLk6GJQsqaUBKTNV-1" vertex="1">
          <mxGeometry x="202.5" y="304" width="40" height="30" as="geometry" />
        </mxCell>
        <mxCell id="i1JUAL5Z5OwXQQaXqIF1-166" value="" style="edgeStyle=orthogonalEdgeStyle;rounded=0;orthogonalLoop=1;jettySize=auto;html=1;" parent="WIyWlLk6GJQsqaUBKTNV-1" source="i1JUAL5Z5OwXQQaXqIF1-162" target="i1JUAL5Z5OwXQQaXqIF1-165" edge="1">
          <mxGeometry relative="1" as="geometry" />
        </mxCell>
        <mxCell id="i1JUAL5Z5OwXQQaXqIF1-162" value="lastCancelListTime:&lt;u&gt;/lending/api/v1/listings&lt;/u&gt;" style="whiteSpace=wrap;html=1;align=left;" parent="WIyWlLk6GJQsqaUBKTNV-1" vertex="1">
          <mxGeometry x="45" y="394" width="230" height="40" as="geometry" />
        </mxCell>
        <mxCell id="i1JUAL5Z5OwXQQaXqIF1-164" value="Yes" style="text;html=1;align=center;verticalAlign=middle;resizable=0;points=[];autosize=1;strokeColor=none;fillColor=none;" parent="WIyWlLk6GJQsqaUBKTNV-1" vertex="1">
          <mxGeometry x="157.5" y="364" width="40" height="30" as="geometry" />
        </mxCell>
        <mxCell id="i1JUAL5Z5OwXQQaXqIF1-168" value="" style="edgeStyle=orthogonalEdgeStyle;rounded=0;orthogonalLoop=1;jettySize=auto;html=1;" parent="WIyWlLk6GJQsqaUBKTNV-1" source="i1JUAL5Z5OwXQQaXqIF1-165" target="i1JUAL5Z5OwXQQaXqIF1-167" edge="1">
          <mxGeometry relative="1" as="geometry" />
        </mxCell>
        <mxCell id="i1JUAL5Z5OwXQQaXqIF1-173" value="" style="edgeStyle=orthogonalEdgeStyle;rounded=0;orthogonalLoop=1;jettySize=auto;html=1;" parent="WIyWlLk6GJQsqaUBKTNV-1" source="i1JUAL5Z5OwXQQaXqIF1-165" target="i1JUAL5Z5OwXQQaXqIF1-172" edge="1">
          <mxGeometry relative="1" as="geometry" />
        </mxCell>
        <mxCell id="i1JUAL5Z5OwXQQaXqIF1-165" value="now.diff(&lt;br&gt;lastCancelListTime,&lt;br&gt;&#39;minutes&#39;) &amp;lt; 10?" style="rhombus;whiteSpace=wrap;html=1;align=center;" parent="WIyWlLk6GJQsqaUBKTNV-1" vertex="1">
          <mxGeometry x="65" y="460" width="190" height="80" as="geometry" />
        </mxCell>
        <mxCell id="i1JUAL5Z5OwXQQaXqIF1-171" value="" style="edgeStyle=orthogonalEdgeStyle;rounded=0;orthogonalLoop=1;jettySize=auto;html=1;" parent="WIyWlLk6GJQsqaUBKTNV-1" source="i1JUAL5Z5OwXQQaXqIF1-167" target="i1JUAL5Z5OwXQQaXqIF1-170" edge="1">
          <mxGeometry relative="1" as="geometry" />
        </mxCell>
        <mxCell id="i1JUAL5Z5OwXQQaXqIF1-167" value="cancel list:&lt;u&gt;/lending/api/v1/listings&lt;/u&gt;" style="whiteSpace=wrap;html=1;" parent="WIyWlLk6GJQsqaUBKTNV-1" vertex="1">
          <mxGeometry x="310" y="480" width="177.5" height="40" as="geometry" />
        </mxCell>
        <mxCell id="i1JUAL5Z5OwXQQaXqIF1-169" value="No" style="text;html=1;align=center;verticalAlign=middle;resizable=0;points=[];autosize=1;strokeColor=none;fillColor=none;" parent="WIyWlLk6GJQsqaUBKTNV-1" vertex="1">
          <mxGeometry x="257.5" y="473" width="40" height="30" as="geometry" />
        </mxCell>
        <mxCell id="i1JUAL5Z5OwXQQaXqIF1-170" value="Cancel List Successfully" style="ellipse;whiteSpace=wrap;html=1;" parent="WIyWlLk6GJQsqaUBKTNV-1" vertex="1">
          <mxGeometry x="536" y="480" width="101.5" height="40" as="geometry" />
        </mxCell>
        <mxCell id="i1JUAL5Z5OwXQQaXqIF1-172" value="Exit" style="ellipse;whiteSpace=wrap;html=1;" parent="WIyWlLk6GJQsqaUBKTNV-1" vertex="1">
          <mxGeometry x="120" y="570" width="80" height="30" as="geometry" />
        </mxCell>
        <mxCell id="i1JUAL5Z5OwXQQaXqIF1-174" value="Yes" style="text;html=1;align=center;verticalAlign=middle;resizable=0;points=[];autosize=1;strokeColor=none;fillColor=none;" parent="WIyWlLk6GJQsqaUBKTNV-1" vertex="1">
          <mxGeometry x="162.5" y="540" width="40" height="30" as="geometry" />
        </mxCell>
        <mxCell id="i1JUAL5Z5OwXQQaXqIF1-175" value="&amp;nbsp;List Successfully" style="ellipse;whiteSpace=wrap;html=1;" parent="WIyWlLk6GJQsqaUBKTNV-1" vertex="1">
          <mxGeometry x="496" y="314" width="101.5" height="40" as="geometry" />
        </mxCell>
        <mxCell id="sc_kCJNTMOZKNPf8azjQ-1" value="Text" style="text;html=1;align=center;verticalAlign=middle;resizable=0;points=[];autosize=1;strokeColor=none;fillColor=none;fontColor=#FEFAE0;" vertex="1" parent="WIyWlLk6GJQsqaUBKTNV-1">
          <mxGeometry x="5" y="18" width="50" height="30" as="geometry" />
        </mxCell>
        <mxCell id="sc_kCJNTMOZKNPf8azjQ-2" value="&lt;b&gt;&lt;font style=&quot;font-size: 24px;&quot;&gt;List&amp;nbsp; &amp;amp; Cancel List&lt;/font&gt;&lt;/b&gt;" style="text;html=1;align=left;verticalAlign=middle;whiteSpace=wrap;rounded=0;fontSize=20;" vertex="1" parent="WIyWlLk6GJQsqaUBKTNV-1">
          <mxGeometry x="20" y="30" width="415" height="30" as="geometry" />
        </mxCell>
      </root>
    </mxGraphModel>
  </diagram>
</mxfile>
